<svg width="25" height="24" viewBox="0 0 25 24" fill="none" xmlns="http://www.w3.org/2000/svg">
<g clip-path="url(#clip0_18_421)">
<path d="M14.0938 8C14.0938 7.46957 13.883 6.96086 13.508 6.58579C13.1329 6.21071 12.6242 6 12.0938 6" stroke="#C2ECD4" stroke-width="2" stroke-linecap="round" stroke-linejoin="round"/>
<path d="M6.09375 8C6.09375 6.4087 6.72589 4.88258 7.85111 3.75736C8.97633 2.63214 10.5025 2 12.0938 2C13.685 2 15.2112 2.63214 16.3364 3.75736C17.4616 4.88258 18.0937 6.4087 18.0938 8C18.0938 12.97 15.4077 17 12.0938 17C8.77975 17 6.09375 12.97 6.09375 8Z" stroke="#C2ECD4" stroke-width="2" stroke-linecap="round" stroke-linejoin="round"/>
<path d="M12.0938 17V18C12.0938 18.5304 11.883 19.0391 11.508 19.4142C11.1329 19.7893 10.6242 20 10.0938 20H7.09375C6.56332 20 6.05461 20.2107 5.67954 20.5858C5.30446 20.9609 5.09375 21.4696 5.09375 22" stroke="#C2ECD4" stroke-width="2" stroke-linecap="round" stroke-linejoin="round"/>
</g>
<defs>
<clipPath id="clip0_18_421">
<rect width="24" height="24" fill="white" transform="translate(0.09375)"/>
</clipPath>
</defs>
</svg>
