<svg width="38" height="38" viewBox="0 0 38 38" fill="none" xmlns="http://www.w3.org/2000/svg">
<path d="M18.9997 3.16675C16.0603 3.16675 13.2412 4.33445 11.1626 6.41298C9.08412 8.49151 7.91641 11.3106 7.91641 14.2501V19.8361C7.91664 20.0817 7.85973 20.324 7.75016 20.5438L5.03158 25.9794C4.89878 26.245 4.83607 26.5401 4.84942 26.8367C4.86276 27.1333 4.95171 27.4216 5.10781 27.6741C5.26392 27.9267 5.482 28.1351 5.74134 28.2797C6.00068 28.4243 6.29267 28.5001 6.58958 28.5001H31.4099C31.7068 28.5001 31.9988 28.4243 32.2582 28.2797C32.5175 28.1351 32.7356 27.9267 32.8917 27.6741C33.0478 27.4216 33.1367 27.1333 33.1501 26.8367C33.1634 26.5401 33.1007 26.245 32.9679 25.9794L30.2509 20.5438C30.1408 20.3241 30.0833 20.0818 30.0831 19.8361V14.2501C30.0831 11.3106 28.9154 8.49151 26.8368 6.41298C24.7583 4.33445 21.9392 3.16675 18.9997 3.16675ZM18.9997 33.2501C18.0171 33.2504 17.0585 32.946 16.2561 32.3789C15.4536 31.8117 14.8467 31.0098 14.5189 30.0834H23.4806C23.1528 31.0098 22.5459 31.8117 21.7434 32.3789C20.941 32.946 19.9824 33.2504 18.9997 33.2501Z" fill="white"/>
</svg>
