<svg width="26" height="26" viewBox="0 0 26 26" fill="none" xmlns="http://www.w3.org/2000/svg">
<path d="M23.2423 17.6183L19.644 17.2075C19.2209 17.1578 18.792 17.2046 18.3896 17.3445C17.9872 17.4844 17.6217 17.7136 17.3206 18.015L14.714 20.6217C10.6923 18.5763 7.4235 15.3075 5.37815 11.2858L7.99898 8.665C8.60815 8.05583 8.90565 7.20583 8.80648 6.34166L8.39565 2.77166C8.31533 2.08058 7.98367 1.44316 7.46381 0.980779C6.94396 0.518395 6.27222 0.263335 5.57648 0.264162H3.12565C1.52481 0.264162 0.193147 1.59583 0.292313 3.19666C1.04315 15.295 10.719 24.9567 22.8031 25.7075C24.404 25.8067 25.7356 24.475 25.7356 22.8742V20.4233C25.7498 18.9925 24.6731 17.7883 23.2423 17.6183Z" fill="white"/>
</svg>
