<svg width="41" height="41" viewBox="0 0 41 41" fill="none" xmlns="http://www.w3.org/2000/svg">
<path d="M29.0413 30.7501C29.9475 30.7501 30.8165 31.1101 31.4573 31.7508C32.098 32.3916 32.458 33.2606 32.458 34.1667C32.458 35.0729 32.098 35.9419 31.4573 36.5827C30.8165 37.2234 29.9475 37.5834 29.0413 37.5834C28.1352 37.5834 27.2661 37.2234 26.6254 36.5827C25.9846 35.9419 25.6247 35.0729 25.6247 34.1667C25.6247 32.2705 27.1451 30.7501 29.0413 30.7501ZM1.70801 3.41675H7.29426L8.90009 6.83341H34.1663C34.6194 6.83341 35.0539 7.0134 35.3743 7.33377C35.6947 7.65415 35.8747 8.08867 35.8747 8.54175C35.8747 8.83216 35.7893 9.12258 35.6697 9.39591L29.5538 20.4488C28.973 21.4909 27.8455 22.2084 26.5643 22.2084H13.8372L12.2997 24.993L12.2484 25.198C12.2484 25.3113 12.2934 25.4199 12.3735 25.5C12.4536 25.5801 12.5622 25.6251 12.6755 25.6251H32.458V29.0417H11.958C11.0519 29.0417 10.1828 28.6818 9.54206 28.041C8.90131 27.4003 8.54134 26.5312 8.54134 25.6251C8.54134 25.0272 8.69509 24.4634 8.95134 23.9851L11.2747 19.7997L5.12467 6.83341H1.70801V3.41675ZM11.958 30.7501C12.8642 30.7501 13.7332 31.1101 14.374 31.7508C15.0147 32.3916 15.3747 33.2606 15.3747 34.1667C15.3747 35.0729 15.0147 35.9419 14.374 36.5827C13.7332 37.2234 12.8642 37.5834 11.958 37.5834C11.0519 37.5834 10.1828 37.2234 9.54206 36.5827C8.90131 35.9419 8.54134 35.0729 8.54134 34.1667C8.54134 32.2705 10.0618 30.7501 11.958 30.7501ZM27.333 18.7917L32.0822 10.2501H10.4888L14.5205 18.7917H27.333Z" fill="white"/>
</svg>
