<svg width="125" height="28" viewBox="0 0 125 28" fill="none" xmlns="http://www.w3.org/2000/svg">
<path fill-rule="evenodd" clip-rule="evenodd" d="M27.7256 13.8824C27.7256 21.5494 21.519 27.7647 13.8628 27.7647C11.7041 27.7647 9.66061 27.2706 7.839 26.3891L1.17481 28L2.69872 22.1138C1.00251 19.8106 0 16.9637 0 13.8824C0 6.21534 6.20659 0 13.8628 0C21.519 0 27.7256 6.21534 27.7256 13.8824ZM17.3357 9.85223C17.6214 10.0329 17.8169 10.176 17.9222 10.2814L19.2981 7.75153C18.5914 7.26965 17.7643 6.85553 16.8169 6.50918C15.8696 6.14776 14.832 5.96706 13.7041 5.96706C12.8921 5.96706 12.1327 6.08 11.4259 6.30588C10.7192 6.51671 10.0951 6.83294 9.55377 7.25459C9.02745 7.67623 8.61391 8.20329 8.31316 8.83576C8.01241 9.46823 7.86203 10.1911 7.86203 11.0042C7.86203 11.6216 7.95226 12.1562 8.13271 12.608C8.3282 13.0598 8.61391 13.4513 8.98985 13.7826C9.36579 14.1139 9.83196 14.4075 10.3884 14.6635C10.9598 14.9045 11.629 15.1304 12.3959 15.3412C13.0275 15.5068 13.5989 15.6649 14.1102 15.8155C14.6214 15.9661 15.0575 16.1318 15.4184 16.3125C15.7793 16.4932 16.0575 16.704 16.253 16.9449C16.4485 17.1859 16.5463 17.4871 16.5463 17.8485C16.5463 18.9478 15.6891 19.4974 13.9748 19.4974C13.3583 19.4974 12.7568 19.4221 12.1703 19.2715C11.5838 19.1209 11.05 18.9402 10.5688 18.7294C10.0876 18.5035 9.66655 18.2852 9.30564 18.0744C8.95978 17.8485 8.71918 17.6678 8.58384 17.5322L7.2079 20.2202C8.14023 20.8828 9.19286 21.3948 10.3658 21.7562C11.5387 22.1176 12.7267 22.2984 13.9297 22.2984C14.7117 22.2984 15.4636 22.2155 16.1854 22.0499C16.9072 21.8692 17.5387 21.5906 18.0801 21.2141C18.6214 20.8376 19.05 20.3482 19.3658 19.7459C19.6966 19.1285 19.8621 18.3906 19.8621 17.5322C19.8621 16.7944 19.7418 16.1769 19.5012 15.68C19.2606 15.168 18.9147 14.7313 18.4636 14.3699C18.0275 14.0085 17.4861 13.7073 16.8395 13.4664C16.2079 13.2254 15.5011 12.9995 14.7192 12.7887C14.1177 12.6381 13.5838 12.4951 13.1177 12.3595C12.6666 12.224 12.2906 12.0734 11.9899 11.9078C11.6891 11.7421 11.456 11.5539 11.2906 11.3431C11.1402 11.1172 11.065 10.8386 11.065 10.5073C11.065 9.93506 11.2756 9.49082 11.6966 9.17459C12.1177 8.85835 12.7568 8.70023 13.6139 8.70023C14.0951 8.70023 14.5688 8.76047 15.035 8.88094C15.5011 9.00141 15.9297 9.152 16.3207 9.3327C16.7267 9.49835 17.0651 9.67153 17.3357 9.85223Z" fill="#47C68F"/>
<path d="M40.127 6.12518H42.9917L44.7962 11.4334L46.6007 6.12518H49.4879L46.7586 13.4212L48.7887 18.5487L53.3225 6.08H56.706L50.1872 22.1176H47.5706L44.7962 15.3864L42.0218 22.1176H39.4052L32.909 6.08H36.2699L40.8263 18.5487L42.8112 13.4212L40.127 6.12518Z" fill="#47C68F"/>
<path d="M69.0158 22.1176H65.9932V15.4767C65.9932 14.5431 65.8203 13.8579 65.4744 13.4212C65.1286 12.9694 64.6399 12.7435 64.0083 12.7435C63.7376 12.7435 63.4519 12.8038 63.1511 12.9242C62.8504 13.0447 62.5647 13.2179 62.294 13.4438C62.0233 13.6546 61.7752 13.9106 61.5496 14.2118C61.3241 14.5129 61.1587 14.8442 61.0534 15.2056V22.1176H58.0308V5.62823H61.0534V12.4725C61.4895 11.7045 62.0759 11.1172 62.8128 10.7106C63.5647 10.2889 64.3917 10.0781 65.294 10.0781C66.0609 10.0781 66.685 10.2136 67.1662 10.4847C67.6474 10.7407 68.0233 11.0871 68.294 11.5238C68.5647 11.9605 68.7527 12.4574 68.8579 13.0146C68.9632 13.5718 69.0158 14.144 69.0158 14.7313V22.1176Z" fill="#47C68F"/>
<path d="M74.8481 22.3435C74.2766 22.3435 73.7428 22.2532 73.2466 22.0725C72.7503 21.8767 72.3217 21.6132 71.9608 21.2819C71.5999 20.9355 71.3142 20.5365 71.1037 20.0847C70.9082 19.6329 70.8105 19.136 70.8105 18.5939C70.8105 18.0367 70.9308 17.5247 71.1714 17.0579C71.427 16.576 71.7729 16.1694 72.209 15.8381C72.6601 15.5068 73.1939 15.2508 73.8105 15.0701C74.427 14.8744 75.1037 14.7765 75.8405 14.7765C76.3669 14.7765 76.8781 14.8216 77.3744 14.912C77.8857 15.0024 78.3368 15.1304 78.7278 15.296V14.6184C78.7278 13.8353 78.5022 13.2329 78.0511 12.8113C77.615 12.3896 76.9608 12.1788 76.0887 12.1788C75.4571 12.1788 74.8405 12.2918 74.239 12.5176C73.6375 12.7435 73.021 13.0748 72.3894 13.5115L71.4646 11.5915C72.9834 10.5826 74.6225 10.0781 76.3819 10.0781C78.0811 10.0781 79.3969 10.4998 80.3293 11.3431C81.2766 12.1713 81.7503 13.376 81.7503 14.9572V18.6391C81.7503 18.9553 81.8105 19.1812 81.9308 19.3167C82.0511 19.4522 82.2616 19.5275 82.5624 19.5426V22.1176C82.2766 22.1779 82.006 22.2155 81.7503 22.2306C81.5097 22.2607 81.2992 22.2758 81.1187 22.2758C80.5473 22.2607 80.1112 22.1327 79.8105 21.8918C79.5097 21.6358 79.3218 21.2969 79.2466 20.8753L79.1789 20.2202C78.6526 20.9129 78.0135 21.44 77.2616 21.8014C76.5097 22.1628 75.7052 22.3435 74.8481 22.3435ZM75.7052 20.1299C76.2165 20.1299 76.6977 20.0395 77.1488 19.8588C77.615 19.6781 77.9759 19.4372 78.2315 19.136C78.5623 18.88 78.7278 18.5939 78.7278 18.2776V16.9224C78.3669 16.7868 77.9759 16.6814 77.5548 16.6061C77.1338 16.5158 76.7278 16.4706 76.3368 16.4706C75.5548 16.4706 74.9157 16.6513 74.4195 17.0127C73.9232 17.3591 73.6751 17.8033 73.6751 18.3454C73.6751 18.8574 73.8706 19.2866 74.2616 19.6329C74.6526 19.9642 75.1338 20.1299 75.7052 20.1299Z" fill="#47C68F"/>
<path d="M94.476 10.2814C94.3708 10.176 94.1753 10.0329 93.8896 9.85223C93.6189 9.67153 93.2805 9.49835 92.8745 9.3327C92.4835 9.152 92.055 9.00141 91.5888 8.88094C91.1226 8.76047 90.649 8.70023 90.1678 8.70023C89.3106 8.70023 88.6715 8.85835 88.2505 9.17459C87.8294 9.49082 87.6189 9.93506 87.6189 10.5073C87.6189 10.8386 87.6941 11.1172 87.8444 11.3431C88.0099 11.5539 88.2429 11.7421 88.5437 11.9078C88.8444 12.0734 89.2204 12.224 89.6715 12.3595C90.1377 12.4951 90.6715 12.6381 91.273 12.7887C92.055 12.9995 92.7617 13.2254 93.3933 13.4664C94.0399 13.7073 94.5813 14.0085 95.0174 14.3699C95.4685 14.7313 95.8144 15.168 96.055 15.68C96.2956 16.1769 96.4159 16.7944 96.4159 17.5322C96.4159 18.3906 96.2505 19.1285 95.9196 19.7459C95.6038 20.3482 95.1753 20.8376 94.6339 21.2141C94.0926 21.5906 93.461 21.8692 92.7392 22.0499C92.0174 22.2155 91.2655 22.2984 90.4835 22.2984C89.2805 22.2984 88.0926 22.1176 86.9196 21.7562C85.7467 21.3948 84.6941 20.8828 83.7617 20.2202L85.1377 17.5322C85.273 17.6678 85.5136 17.8485 85.8595 18.0744C86.2204 18.2852 86.6414 18.5035 87.1226 18.7294C87.6038 18.9402 88.1377 19.1209 88.7241 19.2715C89.3106 19.4221 89.9121 19.4974 90.5287 19.4974C92.2429 19.4974 93.1001 18.9478 93.1001 17.8485C93.1001 17.4871 93.0023 17.1859 92.8069 16.9449C92.6114 16.704 92.3332 16.4932 91.9723 16.3125C91.6114 16.1318 91.1753 15.9661 90.664 15.8155C90.1527 15.6649 89.5813 15.5068 88.9497 15.3412C88.1828 15.1304 87.5136 14.9045 86.9422 14.6635C86.3858 14.4075 85.9196 14.1139 85.5437 13.7826C85.1677 13.4513 84.882 13.0598 84.6865 12.608C84.5061 12.1562 84.4159 11.6216 84.4159 11.0042C84.4159 10.1911 84.5662 9.46824 84.867 8.83576C85.1677 8.20329 85.5813 7.67623 86.1076 7.25459C86.6489 6.83294 87.273 6.51671 87.9798 6.30588C88.6866 6.08 89.4459 5.96706 90.258 5.96706C91.3858 5.96706 92.4234 6.14776 93.3708 6.50918C94.3181 6.85553 95.1452 7.26965 95.852 7.75153L94.476 10.2814Z" fill="#47C68F"/>
<path d="M103.978 22.3435C103.03 22.3435 102.173 22.1854 101.406 21.8692C100.639 21.5379 99.9851 21.0936 99.4437 20.5365C98.9024 19.9793 98.4813 19.3318 98.1806 18.5939C97.8949 17.856 97.752 17.0805 97.752 16.2673C97.752 15.424 97.8949 14.6334 98.1806 13.8955C98.4663 13.1426 98.8798 12.4875 99.4212 11.9304C99.9625 11.3581 100.617 10.9064 101.384 10.5751C102.166 10.2438 103.038 10.0781 104 10.0781C104.963 10.0781 105.82 10.2438 106.572 10.5751C107.338 10.9064 107.985 11.3506 108.511 11.9078C109.053 12.4649 109.459 13.1125 109.729 13.8504C110.015 14.5882 110.158 15.3562 110.158 16.1544C110.158 16.3501 110.151 16.5384 110.135 16.7191C110.135 16.8998 110.12 17.0504 110.09 17.1708H100.955C101 17.6376 101.113 18.0518 101.293 18.4132C101.474 18.7746 101.707 19.0833 101.993 19.3393C102.278 19.5953 102.602 19.7911 102.963 19.9266C103.323 20.0621 103.699 20.1299 104.09 20.1299C104.692 20.1299 105.256 19.9868 105.782 19.7007C106.323 19.3995 106.692 19.008 106.887 18.5261L109.481 19.2489C109.045 20.1525 108.346 20.8979 107.384 21.4852C106.436 22.0574 105.301 22.3435 103.978 22.3435ZM107.045 15.2056C106.97 14.3172 106.639 13.6094 106.053 13.0824C105.481 12.5402 104.782 12.2692 103.955 12.2692C103.549 12.2692 103.166 12.3445 102.805 12.4951C102.459 12.6306 102.151 12.8264 101.88 13.0824C101.609 13.3384 101.384 13.6471 101.203 14.0085C101.038 14.3699 100.94 14.7689 100.91 15.2056H107.045Z" fill="#47C68F"/>
<path d="M111.976 5.62823H114.999V18.1873C114.999 19.1059 115.412 19.5652 116.239 19.5652C116.405 19.5652 116.593 19.5351 116.803 19.4748C117.029 19.4146 117.239 19.3468 117.435 19.2715L117.841 21.6885C117.435 21.8842 116.961 22.0348 116.42 22.1402C115.879 22.2456 115.39 22.2984 114.954 22.2984C114.006 22.2984 113.27 22.0499 112.743 21.5529C112.232 21.0409 111.976 20.3181 111.976 19.3845V5.62823Z" fill="#47C68F"/>
<path d="M119.135 5.62823H122.158V18.1873C122.158 19.1059 122.571 19.5652 123.398 19.5652C123.564 19.5652 123.752 19.5351 123.962 19.4748C124.188 19.4146 124.398 19.3468 124.594 19.2715L125 21.6885C124.594 21.8842 124.12 22.0348 123.579 22.1402C123.038 22.2456 122.549 22.2984 122.113 22.2984C121.165 22.2984 120.429 22.0499 119.902 21.5529C119.391 21.0409 119.135 20.3181 119.135 19.3845V5.62823Z" fill="#47C68F"/>
</svg>
