<svg width="24" height="25" viewBox="0 0 24 25" fill="none" xmlns="http://www.w3.org/2000/svg">
<path d="M2 19.9V5.1C2 4.76863 2.26863 4.5 2.6 4.5H17.4C17.7314 4.5 18 4.76863 18 5.1V19.9C18 20.2314 17.7314 20.5 17.4 20.5H2.6C2.26863 20.5 2 20.2314 2 19.9Z" fill="#959595"/>
<path d="M22 6.5V18.5" stroke="#959595" stroke-width="2" stroke-linecap="round"/>
<path d="M11 15C11 15.8284 10.3284 16.5 9.5 16.5C8.67157 16.5 8 15.8284 8 15C8 14.1716 8.67157 13.5 9.5 13.5C10.3284 13.5 11 14.1716 11 15Z" fill="#FAFAFA"/>
<path d="M11 15V9.1C11 8.76863 11.2686 8.5 11.6 8.5H13M11 15C11 15.8284 10.3284 16.5 9.5 16.5C8.67157 16.5 8 15.8284 8 15C8 14.1716 8.67157 13.5 9.5 13.5C10.3284 13.5 11 14.1716 11 15Z" stroke="#FAFAFA" stroke-width="2" stroke-linecap="round"/>
</svg>
