<svg width="25" height="25" viewBox="0 0 25 25" fill="none" xmlns="http://www.w3.org/2000/svg">
<g clip-path="url(#clip0_470_61039)">
<path d="M19.793 9.07276L14.2378 4.75192C13.7502 4.37266 13.1502 4.16675 12.5326 4.16675C11.9149 4.16675 11.3149 4.37266 10.8273 4.75192L5.27109 9.07276C4.93718 9.33243 4.66702 9.66497 4.48126 10.045C4.29549 10.425 4.19902 10.8425 4.19922 11.2655V18.7655C4.19922 19.318 4.41871 19.8479 4.80941 20.2386C5.20011 20.6293 5.73002 20.8488 6.28255 20.8488H18.7826C19.3351 20.8488 19.865 20.6293 20.2557 20.2386C20.6464 19.8479 20.8659 19.318 20.8659 18.7655V11.2655C20.8659 10.4082 20.4701 9.5988 19.793 9.07276Z" fill="#47C67F"/>
<path d="M16.6668 15.625C14.3647 17.0135 10.6335 17.0135 8.3335 15.625" stroke="#FAFAFA" stroke-width="2.08333" stroke-linecap="round" stroke-linejoin="round"/>
</g>
<defs>
<clipPath id="clip0_470_61039">
<rect width="25" height="25" fill="white"/>
</clipPath>
</defs>
</svg>
