<svg width="25" height="25" viewBox="0 0 25 25" fill="none" xmlns="http://www.w3.org/2000/svg">
<g clip-path="url(#clip0_470_61042)">
<path d="M14.5835 5.20841C14.5835 4.63312 15.0499 4.16675 15.6252 4.16675H19.7918C20.3671 4.16675 20.8335 4.63312 20.8335 5.20841V9.37508C20.8335 9.95038 20.3671 10.4167 19.7918 10.4167H15.6252C15.0499 10.4167 14.5835 9.95038 14.5835 9.37508V5.20841Z" fill="#959595"/>
<path d="M4.1665 15.6249C4.1665 15.0496 4.63287 14.5833 5.20817 14.5833H9.37484C9.95013 14.5833 10.4165 15.0496 10.4165 15.6249V19.7916C10.4165 20.3669 9.95013 20.8333 9.37484 20.8333H5.20817C4.63287 20.8333 4.1665 20.3669 4.1665 19.7916V15.6249Z" fill="#959595"/>
<path d="M17.7085 20.8333C19.4344 20.8333 20.8335 19.4341 20.8335 17.7083C20.8335 15.9824 19.4344 14.5833 17.7085 14.5833C15.9826 14.5833 14.5835 15.9824 14.5835 17.7083C14.5835 19.4341 15.9826 20.8333 17.7085 20.8333Z" fill="#959595"/>
<path d="M7.2915 10.4167C9.01739 10.4167 10.4165 9.01764 10.4165 7.29175C10.4165 5.56586 9.01739 4.16675 7.2915 4.16675C5.56561 4.16675 4.1665 5.56586 4.1665 7.29175C4.1665 9.01764 5.56561 10.4167 7.2915 10.4167Z" fill="#959595"/>
</g>
<defs>
<clipPath id="clip0_470_61042">
<rect width="25" height="25" fill="white"/>
</clipPath>
</defs>
</svg>
