<svg width="50" height="50" viewBox="0 0 50 50" fill="none" xmlns="http://www.w3.org/2000/svg">
<rect width="50" height="50" rx="10" fill="#FF7986" fill-opacity="0.5"/>
<path d="M19 15H31C32.0609 15 33.0783 15.4214 33.8284 16.1716C34.5786 16.9217 35 17.9391 35 19V31C35 32.0609 34.5786 33.0783 33.8284 33.8284C33.0783 34.5786 32.0609 35 31 35H19C17.9391 35 16.9217 34.5786 16.1716 33.8284C15.4214 33.0783 15 32.0609 15 31V19C15 17.9391 15.4214 16.9217 16.1716 16.1716C16.9217 15.4214 17.9391 15 19 15V15ZM19 17C18.4696 17 17.9609 17.2107 17.5858 17.5858C17.2107 17.9609 17 18.4696 17 19V31C17 31.5304 17.2107 32.0391 17.5858 32.4142C17.9609 32.7893 18.4696 33 19 33H31C31.5304 33 32.0391 32.7893 32.4142 32.4142C32.7893 32.0391 33 31.5304 33 31V19C33 18.4696 32.7893 17.9609 32.4142 17.5858C32.0391 17.2107 31.5304 17 31 17H19ZM26.414 25L29.243 27.828C29.4306 28.0156 29.5361 28.2701 29.5361 28.5355C29.5361 28.8009 29.4306 29.0554 29.243 29.243C29.0554 29.4306 28.8009 29.5361 28.5355 29.5361C28.2701 29.5361 28.0156 29.4306 27.828 29.243L25 26.414L22.172 29.243C21.9844 29.4306 21.7299 29.5361 21.4645 29.5361C21.1991 29.5361 20.9446 29.4306 20.757 29.243C20.5694 29.0554 20.4639 28.8009 20.4639 28.5355C20.4639 28.2701 20.5694 28.0156 20.757 27.828L23.586 25L20.757 22.172C20.5694 21.9844 20.4639 21.7299 20.4639 21.4645C20.4639 21.1991 20.5694 20.9446 20.757 20.757C20.9446 20.5694 21.1991 20.4639 21.4645 20.4639C21.7299 20.4639 21.9844 20.5694 22.172 20.757L25 23.586L27.828 20.757C28.0156 20.5694 28.2701 20.4639 28.5355 20.4639C28.8009 20.4639 29.0554 20.5694 29.243 20.757C29.4306 20.9446 29.5361 21.1991 29.5361 21.4645C29.5361 21.7299 29.4306 21.9844 29.243 22.172L26.414 25Z" fill="#DF1124"/>
</svg>
