<svg width="50" height="50" viewBox="0 0 50 50" fill="none" xmlns="http://www.w3.org/2000/svg">
<rect width="50" height="50" rx="10" fill="#FFC727" fill-opacity="0.5"/>
<path d="M16.75 35.5C16.5511 35.5 16.3603 35.421 16.2197 35.2803C16.079 35.1397 16 34.9489 16 34.75C16 34.5511 16.079 34.3603 16.2197 34.2197C16.3603 34.079 16.5511 34 16.75 34H18.25V32.5C18.2497 31.2265 18.6097 29.9788 19.2884 28.9012C19.9671 27.8235 20.9368 26.9599 22.0855 26.41C22.5205 26.2015 22.75 25.8445 22.75 25.525V24.475C22.75 24.1555 22.519 23.7985 22.0855 23.59C20.9368 23.0401 19.9671 22.1765 19.2884 21.0988C18.6097 20.0212 18.2497 18.7735 18.25 17.5V16H16.75C16.5511 16 16.3603 15.921 16.2197 15.7803C16.079 15.6397 16 15.4489 16 15.25C16 15.0511 16.079 14.8603 16.2197 14.7197C16.3603 14.579 16.5511 14.5 16.75 14.5H33.25C33.4489 14.5 33.6397 14.579 33.7803 14.7197C33.921 14.8603 34 15.0511 34 15.25C34 15.4489 33.921 15.6397 33.7803 15.7803C33.6397 15.921 33.4489 16 33.25 16H31.75V17.5C31.7503 18.7735 31.3903 20.0212 30.7116 21.0988C30.0329 22.1765 29.0632 23.0401 27.9145 23.59C27.4795 23.7985 27.25 24.1555 27.25 24.475V25.525C27.25 25.8445 27.481 26.2015 27.9145 26.41C29.0632 26.9599 30.0329 27.8235 30.7116 28.9012C31.3903 29.9788 31.7503 31.2265 31.75 32.5V34H33.25C33.4489 34 33.6397 34.079 33.7803 34.2197C33.921 34.3603 34 34.5511 34 34.75C34 34.9489 33.921 35.1397 33.7803 35.2803C33.6397 35.421 33.4489 35.5 33.25 35.5H16.75ZM19.75 16V17.5C19.75 18.3055 19.93 19.0675 20.2555 19.75H29.7445C30.0685 19.0675 30.25 18.3055 30.25 17.5V16H19.75ZM24.25 25.525C24.25 26.5765 23.533 27.379 22.7335 27.763C21.8399 28.1907 21.0856 28.8624 20.5577 29.7007C20.0297 30.5389 19.7497 31.5094 19.75 32.5C19.75 32.5 21.049 30.5515 24.25 30.28V25.525ZM25.75 25.525V30.28C28.951 30.5515 30.25 32.5 30.25 32.5C30.2503 31.5094 29.9703 30.5389 29.4423 29.7007C28.9144 28.8624 28.1601 28.1907 27.2665 27.763C26.467 27.379 25.75 26.578 25.75 25.5265V25.525Z" fill="#C4940A"/>
</svg>
