<svg width="18" height="18" viewBox="0 0 18 18" fill="none" xmlns="http://www.w3.org/2000/svg">
<rect x="1.35086" y="1.23758" width="15.5253" height="15.5253" rx="7.76267" stroke="#6A6A6A" stroke-width="1.36187"/>
<path fill-rule="evenodd" clip-rule="evenodd" d="M13.5828 8.96282C13.5828 11.4108 11.5815 13.3954 9.11269 13.3954C8.44858 13.3954 7.8183 13.2518 7.2517 12.9942C7.19879 12.9701 7.13944 12.9635 7.08291 12.9771L5.43231 13.3721C5.24626 13.4167 5.07989 13.2468 5.12828 13.0617L5.48203 11.7087C5.50147 11.6343 5.48573 11.5554 5.44156 11.4925C4.93788 10.7751 4.64258 9.90318 4.64258 8.96282C4.64258 6.51479 6.64391 4.53027 9.11269 4.53027C11.5815 4.53027 13.5828 6.51479 13.5828 8.96282ZM10.2325 7.67603C10.3319 7.73823 10.4778 7.71076 10.5343 7.60804L10.7541 7.20786C10.8171 7.0931 10.7827 6.94834 10.669 6.88352C10.4882 6.78049 10.2869 6.68886 10.0653 6.60861C9.75977 6.49322 9.4252 6.43552 9.06153 6.43552C8.79969 6.43552 8.55482 6.47158 8.32692 6.5437C8.09902 6.61102 7.89778 6.71199 7.72322 6.84662C7.55351 6.98125 7.42017 7.14953 7.32319 7.35148C7.22621 7.55342 7.17772 7.78421 7.17772 8.04386C7.17772 8.24099 7.20681 8.41168 7.265 8.55593C7.32804 8.70017 7.42017 8.82519 7.54139 8.93097C7.66261 9.03675 7.81293 9.13051 7.99234 9.21224C8.1766 9.28918 8.39238 9.3613 8.63967 9.42861C8.84333 9.4815 9.02759 9.53199 9.19245 9.58007C9.35731 9.62815 9.49793 9.68104 9.61431 9.73874C9.73068 9.79644 9.82039 9.86375 9.88342 9.94068C9.94646 10.0176 9.97798 10.1138 9.97798 10.2292C9.97798 10.5802 9.70159 10.7557 9.14881 10.7557C8.95 10.7557 8.75605 10.7316 8.56694 10.6835C8.37783 10.6355 8.20569 10.5778 8.05053 10.5105C7.89536 10.4383 7.75959 10.3686 7.64322 10.3013C7.52229 10.2231 7.3432 10.2583 7.27707 10.3862L7.06827 10.7902C7.01012 10.9026 7.04345 11.0417 7.15162 11.1075C7.40459 11.2614 7.68241 11.3846 7.98507 11.4769C8.36328 11.5923 8.74635 11.65 9.13426 11.65C9.38641 11.65 9.62885 11.6236 9.8616 11.5707C10.0944 11.513 10.298 11.424 10.4726 11.3038C10.6471 11.1836 10.7853 11.0273 10.8872 10.835C10.9938 10.6379 11.0472 10.4023 11.0472 10.1282C11.0472 9.8926 11.0084 9.69547 10.9308 9.5368C10.8532 9.37332 10.7417 9.23388 10.5962 9.11848C10.4556 9.00309 10.281 8.90692 10.0725 8.82999C9.86888 8.75306 9.64098 8.68094 9.38883 8.61363C9.19487 8.56554 9.02274 8.51987 8.87242 8.47659C8.72695 8.43332 8.60573 8.38524 8.50875 8.33235C8.41177 8.27946 8.33661 8.21935 8.28327 8.15204C8.23479 8.07992 8.21054 7.99097 8.21054 7.88519C8.21054 7.70247 8.27843 7.56063 8.4142 7.45966C8.54997 7.35869 8.75605 7.3082 9.03243 7.3082C9.1876 7.3082 9.34034 7.32744 9.49066 7.3659C9.64098 7.40437 9.77917 7.45245 9.90524 7.51015C10.0362 7.56304 10.1453 7.61833 10.2325 7.67603Z" fill="#6A6A6A"/>
</svg>
